inDegrees=yes
name=ik_lifting_orientations
DataType=double
version=3
OpenSimVersion=4.5-2024-01-10-34fd6af
endheader
time	pelvis_tilt	pelvis_list	pelvis_rotation	pelvis_tx	pelvis_ty	pelvis_tz	hip_flexion_r	hip_adduction_r	hip_rotation_r	knee_angle_r	knee_angle_r_beta	ankle_angle_r	subtalar_angle_r	mtp_angle_r	hip_flexion_l	hip_adduction_l	hip_rotation_l	knee_angle_l	knee_angle_l_beta	ankle_angle_l	subtalar_angle_l	mtp_angle_l	lumbar_extension	lumbar_bending	lumbar_rotation	arm_flex_r	arm_add_r	arm_rot_r	elbow_flex_r	pro_sup_r	wrist_flex_r	wrist_dev_r	arm_flex_l	arm_add_l	arm_rot_l	elbow_flex_l	pro_sup_l	wrist_flex_l	wrist_dev_l
0.82	-15.41150395008334	-9.511445389198572	-116.8630222083	0	0.9399999998679526	0	45.93069003461226	-10.52589881660475	0	60.42019433540283	1.054531325847607	-5.165494550834941	0	0	45.93069003461226	-10.52589881660475	0	60.42019433540283	1.054531325847607	-5.165494550834941	0	0	-25.87345418965253	13.37713226267601	15.97944637569194	8.338127090821516	-10.69567680319541	29.9451891619068	57.25204716456808	1.093783425368424	0	0	0	-12.17834735129573	0	88.93917625235423	1.093783425368424	0	0
0.83	-15.95249669748223	-9.570434070838134	-118.4605320620026	0	0.9399999998679526	0	45.9303412233997	-10.52521324181478	0	60.42007033765655	1.054529161678669	-5.16521341827838	0	0	45.9303412233997	-10.52521324181478	0	60.42007033765655	1.054529161678669	-5.16521341827838	0	0	-26.29647677446805	13.02587145198931	17.77030516985164	8.039007975415814	-10.11731408297306	29.40353785552987	57.48108359706914	1.093497801813477	0	0	0	-12.17889043474536	0	88.93945322142341	1.093497801813477	0	0
0.84	-16.78978603023285	-9.745294323628405	-120.1178444000463	0	0.9399999998679526	0	45.93002324190483	-10.52458976005325	0	60.41995716056079	1.05452718636571	-5.16495792324215	0	0	45.93002324190483	-10.52458976005325	0	60.41995716056079	1.05452718636571	-5.16495792324215	0	0	-26.88286546435646	12.79084484716531	19.46279392115504	7.200432555501814	-9.68050906947416	28.72036431504571	58.17902837351586	1.093237278104612	0	0	0	-12.1793860117806	0	88.93970585118554	1.093237278104612	0	0
0.85	-17.6314241446993	-9.903361933378315	-121.7594993740333	0	0.9399999998679526	0	45.92972661186941	-10.52400828873999	0	60.41985162496157	1.054525344422026	-5.164719701342703	0	0	45.92972661186941	-10.52400828873999	0	60.41985162496157	1.054525344422026	-5.164719701342703	0	0	-27.39470356701717	12.5476059884168	21.08864573030537	6.303473876470601	-9.19158499136419	27.94785600035917	58.69274477764981	1.092994267066223	0	0	0	-12.17984823270854	0	88.93994149891597	1.092994267066223	0	0
0.86	-18.04893494971979	-9.882736486197462	-123.0417292609199	0	0.9399999998679526	0	45.92942474379552	-10.52342153970691	0	60.41974358867959	1.054523458833193	-5.164479772748074	0	0	45.92942474379552	-10.52342153970691	0	60.41974358867959	1.054523458833193	-5.164479772748074	0	0	-27.50605211832549	12.21269140925084	22.41464775670907	5.598548834344094	-9.265944469776297	27.51801485289008	59.49190837841287	1.092746375702777	0	0	0	-12.18032066677578	0	88.94018187911773	1.092746375702777	0	0
0.87	-18.53144696245815	-9.797700071461236	-124.6728257335395	0	0.9399999998679526	0	45.92912731937802	-10.52284738425879	0	60.41963659753311	1.054521591485417	-5.164245330679249	0	0	45.92912731937802	-10.52284738425879	0	60.41963659753311	1.054521591485417	-5.164245330679249	0	0	-27.74689875900263	11.79499821264434	24.15017162389075	5.130915634596909	-9.352621174002453	27.28971168751074	60.11569157667243	1.092501634658424	0	0	0	-12.18078789791663	0	88.94041920447428	1.092501634658424	0	0
0.88	-18.97789726591503	-9.693752916313404	-126.2628273183705	0	0.9399999998679526	0	45.92877018497789	-10.52215373486221	0	60.41950882181893	1.0545193613785	-5.163961815820167	0	0	45.92877018497789	-10.52215373486221	0	60.41950882181893	1.0545193613785	-5.163961815820167	0	0	-28.09180401546813	11.43072880498346	25.79004704973354	4.720486407323087	-9.366354806766896	27.05728541389821	60.44417697944792	1.092208355742268	0	0	0	-12.1813468204388	0	88.94070359697713	1.092208355742268	0	0
0.89	-19.62403464398422	-9.672527996909579	-127.9161636429089	0	0.9399999998679526	0	45.9283568627622	-10.5213495992543	0	60.41936125103212	1.054516785782391	-5.163633114577886	0	0	45.9283568627622	-10.5213495992543	0	60.41936125103212	1.054516785782391	-5.163633114577886	0	0	-28.67975473469991	11.13649340940525	27.47586739699583	4.038714542834574	-9.441845050535745	26.79953215414304	61.14848432227202	1.09186917760255	0	0	0	-12.18199280577161	0	88.9410324979391	1.09186917760255	0	0
0.9	-20.30716944993352	-9.592989382359203	-129.821989350702	0	0.9399999998679526	0	45.92795260644859	-10.52056497930817	0	60.41921674535678	1.054514263682568	-5.163312613020099	0	0	45.92795260644859	-10.52056497930817	0	60.41921674535678	1.054514263682568	-5.163312613020099	0	0	-29.29853081347861	10.74335214022223	29.40510821063726	3.618599324748363	-9.436573599486701	26.62372664177925	61.54072793011641	1.091537255284193	0	0	0	-12.18262525022062	0	88.94135436294005	1.091537255284193	0	0
0.91	-21.11416190857726	-9.665079496296594	-131.3439740586453	0	0.9399999998679526	0	45.92758155096853	-10.51984261584602	0	60.41908453840351	1.05451195623594	-5.16301744977987	0	0	45.92758155096853	-10.51984261584602	0	60.41908453840351	1.05451195623594	-5.16301744977987	0	0	-29.87334866071748	10.5378828243548	30.82318654459986	3.725401267801244	-9.04147797892929	26.70836997368322	61.34072272426681	1.091232946346091	0	0	0	-12.18320448864536	0	88.94164945123974	1.091232946346091	0	0
0.92	-21.80293962314996	-9.698670060584696	-132.5885445192104	0	0.9399999998679526	0	45.92728750291888	-10.51926966569318	0	60.41897990351696	1.054510130012657	-5.162783342781586	0	0	45.92728750291888	-10.51926966569318	0	60.41897990351696	1.054510130012657	-5.162783342781586	0	0	-30.23517954426751	10.35349906559977	32.02820644101378	3.726809146564774	-8.759741692271811	26.56369576563167	61.7035599046959	1.090991894089353	0	0	0	-12.18366314627951	0	88.94188319954829	1.090991894089353	0	0
0.93	-22.48953476147858	-9.715143060998868	-133.8121619046117	0	0.9399999998679526	0	45.92698345062367	-10.51867573428115	0	60.418871979428	1.054508246381962	-5.16254058534034	0	0	45.92698345062367	-10.51867573428115	0	60.418871979428	1.054508246381962	-5.16254058534034	0	0	-30.74592500331135	10.20666563798373	33.04086120376198	3.733216044302283	-8.409332031949013	26.17387411039929	62.12908221886573	1.090742865127093	0	0	0	-12.18413661071131	0	88.94212468285829	1.090742865127093	0	0
0.9399999999999999	-22.83306823145838	-9.474335865931799	-135.521307718144	0	0.9399999998679526	0	45.92673217953173	-10.51818557051701	0	60.41878273758925	1.054506688818046	-5.162340325871289	0	0	45.92673217953173	-10.51818557051701	0	60.41878273758925	1.054506688818046	-5.162340325871289	0	0	-30.98889209486822	9.716198343016682	34.50948428303929	3.550406595452667	-7.815465260948856	25.46295863367668	62.41416799067953	1.090537005796596	0	0	0	-12.18452808802821	0	88.94232430459172	1.090537005796596	0	0
0.95	-23.16101924956748	-9.043050540434583	-137.912447548677	0	0.9399999998679526	0	45.92635585538377	-10.51745326497462	0	60.41864890222228	1.054504352950236	-5.162041340549538	0	0	45.92635585538377	-10.51745326497462	0	60.41864890222228	1.054504352950236	-5.162041340549538	0	0	-31.2079022389318	8.992677506148668	36.66187557571364	3.72386423104354	-7.312881543769837	25.3122100618593	61.99566049604384	1.090228510457952	0	0	0	-12.1851150258248	0	88.94262345243965	1.090228510457952	0	0
0.96	-23.79937582758669	-8.70358089190737	-140.4143988916111	0	0.9399999998679526	0	45.92605819797648	-10.51687674149219	0	60.41854271992064	1.054502499719465	-5.161806221448712	0	0	45.92605819797648	-10.51687674149219	0	60.41854271992064	1.054502499719465	-5.161806221448712	0	0	-31.64783319356946	8.334903522432096	38.83449263645407	3.620772669508113	-6.794544522035678	25.25934758792608	61.77538244711399	1.089984194524119	0	0	0	-12.18558034078681	0	88.94286036554725	1.089984194524119	0	0
0.97	-23.57984910334176	-8.079975656045772	-142.7056831363514	0	0.9399999998679526	0	45.92571287676067	-10.51620939792322	0	60.41841938774955	1.054500347167006	-5.1615342346099	0	0	45.92571287676067	-10.51620939792322	0	60.41841938774955	1.054500347167006	-5.1615342346099	0	0	-31.39385827229016	7.416534728347306	40.87608300309643	3.892987975183024	-6.853257773325375	25.51885471748137	62.15301414530335	1.089700603517504	0	0	0	-12.18612069127206	0	88.94313536369023	1.089700603517504	0	0
0.98	-22.4795146713898	-7.050701971490225	-145.7700400062857	0	0.9399999998679526	0	45.92546985112816	-10.5157406481542	0	60.4183325065235	1.054498830803553	-5.161343293967091	0	0	45.92546985112816	-10.5157406481542	0	60.4183325065235	1.054498830803553	-5.161343293967091	0	0	-30.18508842110608	5.982857199595234	43.40816429892419	3.886492228241893	-6.826794641896783	25.49860107416808	62.65509406665196	1.089500932745469	0	0	0	-12.18650127515932	0	88.94332898440172	1.089500932745469	0	0
0.99	-22.09377591956814	-6.267270936104347	-148.7656980722075	0	0.9399999998679526	0	45.92513098190869	-10.51508460394188	0	60.41821178766089	1.054496723861932	-5.161075918674571	0	0	45.92513098190869	-10.51508460394188	0	60.41821178766089	1.054496723861932	-5.161075918674571	0	0	-29.59575681863027	4.884244927485933	46.06570967842236	4.011502834986785	-6.718421903346269	25.33457388995048	63.00482892714139	1.089222876275954	0	0	0	-12.18703067413297	0	88.94359861569731	1.089222876275954	0	0
